<svg width="124" height="43" viewBox="0 0 124 43" fill="none" xmlns="http://www.w3.org/2000/svg">
<path d="M37.3634 35.2446C35.3622 35.2446 33.483 34.8664 31.7259 34.1098C29.9932 33.3777 28.4557 32.3527 27.1134 31.0348C25.7955 29.6926 24.7583 28.1429 24.0018 26.3857C23.2452 24.6286 22.867 22.7494 22.867 20.7482C22.867 18.747 23.2452 16.8679 24.0018 15.1107C24.7583 13.3536 25.7955 11.8161 27.1134 10.4982C28.4557 9.15595 29.9932 8.11875 31.7259 7.3866C33.483 6.63006 35.3622 6.25178 37.3634 6.25178C39.3646 6.25178 41.2438 6.63006 43.0009 7.3866C44.758 8.11875 46.2955 9.15595 47.6134 10.4982C48.9557 11.8161 49.9929 13.3536 50.725 15.1107C51.4815 16.8679 51.8598 18.747 51.8598 20.7482C51.8598 22.7494 51.4815 24.6286 50.725 26.3857C49.9929 28.1429 48.9557 29.6926 47.6134 31.0348C46.2955 32.3527 44.758 33.3777 43.0009 34.1098C41.2438 34.8664 39.3646 35.2446 37.3634 35.2446ZM37.3634 32.7187C39.0229 32.7187 40.5726 32.4137 42.0125 31.8036C43.4524 31.169 44.7214 30.3027 45.8196 29.2045C46.9179 28.1062 47.772 26.8372 48.3821 25.3973C49.0167 23.9574 49.3339 22.4077 49.3339 20.7482C49.3339 19.0887 49.0167 17.539 48.3821 16.0991C47.772 14.6592 46.9179 13.3902 45.8196 12.292C44.7214 11.1937 43.4524 10.3396 42.0125 9.72946C40.5726 9.09494 39.0229 8.77768 37.3634 8.77768C35.7039 8.77768 34.1542 9.09494 32.7143 9.72946C31.2744 10.3396 30.0054 11.1937 28.9071 12.292C27.8089 13.3902 26.9426 14.6592 26.308 16.0991C25.6979 17.539 25.3929 19.0887 25.3929 20.7482C25.3929 22.4077 25.6979 23.9574 26.308 25.3973C26.9426 26.8372 27.8089 28.1062 28.9071 29.2045C30.0054 30.3027 31.2744 31.169 32.7143 31.8036C34.1542 32.4137 35.7039 32.7187 37.3634 32.7187ZM37.3634 30.9616C35.9479 30.9616 34.6179 30.7054 33.3732 30.1929C32.153 29.656 31.067 28.9238 30.1152 27.9964C29.1878 27.0446 28.4557 25.9586 27.9188 24.7384C27.4063 23.4937 27.15 22.1637 27.15 20.7482C27.15 19.3327 27.4063 18.0149 27.9188 16.7946C28.4557 15.55 29.1878 14.464 30.1152 13.5366C31.067 12.5848 32.153 11.8527 33.3732 11.3402C34.6179 10.8033 35.9479 10.5348 37.3634 10.5348C38.7789 10.5348 40.1089 10.8033 41.3536 11.3402C42.5982 11.8527 43.6842 12.5848 44.6116 13.5366C45.5634 14.464 46.2955 15.55 46.808 16.7946C47.3449 18.0149 47.6134 19.3327 47.6134 20.7482C47.6134 22.1637 47.3449 23.4937 46.808 24.7384C46.2955 25.9586 45.5634 27.0446 44.6116 27.9964C43.6842 28.9238 42.5982 29.656 41.3536 30.1929C40.1089 30.7054 38.7789 30.9616 37.3634 30.9616ZM70.1551 36.6991H53.782V34H70.1551V36.6991ZM86.59 35.2446C84.5888 35.2446 82.7096 34.8664 80.9525 34.1098C79.2198 33.3777 77.6823 32.3527 76.34 31.0348C75.0221 29.6926 73.9849 28.1429 73.2284 26.3857C72.4718 24.6286 72.0936 22.7494 72.0936 20.7482C72.0936 18.747 72.4718 16.8679 73.2284 15.1107C73.9849 13.3536 75.0221 11.8161 76.34 10.4982C77.6823 9.15595 79.2198 8.11875 80.9525 7.3866C82.7096 6.63006 84.5888 6.25178 86.59 6.25178C88.5912 6.25178 90.4703 6.63006 92.2275 7.3866C93.9846 8.11875 95.5221 9.15595 96.84 10.4982C98.1823 11.8161 99.2195 13.3536 99.9516 15.1107C100.708 16.8679 101.086 18.747 101.086 20.7482C101.086 22.7494 100.708 24.6286 99.9516 26.3857C99.2195 28.1429 98.1823 29.6926 96.84 31.0348C95.5221 32.3527 93.9846 33.3777 92.2275 34.1098C90.4703 34.8664 88.5912 35.2446 86.59 35.2446ZM86.59 32.7187C88.2495 32.7187 89.7992 32.4137 91.2391 31.8036C92.679 31.169 93.948 30.3027 95.0462 29.2045C96.1445 28.1062 96.9986 26.8372 97.6087 25.3973C98.2433 23.9574 98.5605 22.4077 98.5605 20.7482C98.5605 19.0887 98.2433 17.539 97.6087 16.0991C96.9986 14.6592 96.1445 13.3902 95.0462 12.292C93.948 11.1937 92.679 10.3396 91.2391 9.72946C89.7992 9.09494 88.2495 8.77768 86.59 8.77768C84.9305 8.77768 83.3808 9.09494 81.9409 9.72946C80.501 10.3396 79.232 11.1937 78.1337 12.292C77.0355 13.3902 76.1692 14.6592 75.5346 16.0991C74.9245 17.539 74.6195 19.0887 74.6195 20.7482C74.6195 22.4077 74.9245 23.9574 75.5346 25.3973C76.1692 26.8372 77.0355 28.1062 78.1337 29.2045C79.232 30.3027 80.501 31.169 81.9409 31.8036C83.3808 32.4137 84.9305 32.7187 86.59 32.7187ZM86.59 30.9616C85.1745 30.9616 83.8445 30.7054 82.5998 30.1929C81.3796 29.656 80.2936 28.9238 79.3418 27.9964C78.4144 27.0446 77.6823 25.9586 77.1453 24.7384C76.6328 23.4937 76.3766 22.1637 76.3766 20.7482C76.3766 19.3327 76.6328 18.0149 77.1453 16.7946C77.6823 15.55 78.4144 14.464 79.3418 13.5366C80.2936 12.5848 81.3796 11.8527 82.5998 11.3402C83.8445 10.8033 85.1745 10.5348 86.59 10.5348C88.0055 10.5348 89.3355 10.8033 90.5802 11.3402C91.8248 11.8527 92.9108 12.5848 93.8382 13.5366C94.79 14.464 95.5221 15.55 96.0346 16.7946C96.5715 18.0149 96.84 19.3327 96.84 20.7482C96.84 22.1637 96.5715 23.4937 96.0346 24.7384C95.5221 25.9586 94.79 27.0446 93.8382 27.9964C92.9108 28.9238 91.8248 29.656 90.5802 30.1929C89.3355 30.7054 88.0055 30.9616 86.59 30.9616Z" fill="white"/>
</svg>
